<svg width="16" height="22" viewBox="0 0 16 22" fill="none" xmlns="http://www.w3.org/2000/svg">
<path d="M0 3.18141C0 2.30385 0.62668 1.55146 1.48978 1.39279L1.78419 1.33867C2.10176 1.28029 2.40237 1.15203 2.66427 0.963176L3.21417 0.566651C3.72507 0.198251 4.33896 0 4.96882 0H11.0353C11.6626 0 12.2741 0.196639 12.7839 0.56226L13.3479 0.966823C13.6079 1.15331 13.9058 1.28011 14.2205 1.33819L14.511 1.39182C15.3738 1.55108 16 2.30344 16 3.1808V3.1808C16 4.18552 15.1855 5 14.1808 5H1.81859C0.814211 5 0 4.18579 0 3.18141V3.18141Z" fill="#F47575"/>
<path d="M0.281009 8.24807C0.131795 7.05436 1.06257 6 2.26556 6H13.7344C14.9374 6 15.8682 7.05436 15.719 8.24807L14.219 20.2481C14.0939 21.2489 13.2431 22 12.2344 22H3.76556C2.75692 22 1.90612 21.2489 1.78101 20.2481L0.281009 8.24807Z" fill="#F47575"/>
<rect x="4.30005" y="9" width="1.4" height="10" rx="0.7" fill="white"/>
<rect x="10.3" y="9" width="1.4" height="10" rx="0.7" fill="white"/>
<rect x="7.30005" y="9" width="1.4" height="10" rx="0.7" fill="white"/>
</svg>
