<svg width="16" height="5" viewBox="0 0 16 5" fill="none" xmlns="http://www.w3.org/2000/svg">
<path d="M0 3.18141C0 2.30385 0.62668 1.55146 1.48978 1.39279L1.78419 1.33867C2.10176 1.28029 2.40237 1.15203 2.66427 0.963176L3.21417 0.566651C3.72507 0.198251 4.33896 0 4.96882 0H11.0353C11.6626 0 12.2741 0.196639 12.7839 0.56226L13.3479 0.966823C13.6079 1.15331 13.9058 1.28011 14.2205 1.33819L14.511 1.39182C15.3738 1.55108 16 2.30344 16 3.1808V3.1808C16 4.18552 15.1855 5 14.1808 5H1.81859C0.814211 5 0 4.18579 0 3.18141V3.18141Z" fill="#F47575"/>
</svg>
