<svg width="19" height="19" viewBox="0 0 19 19" fill="none" xmlns="http://www.w3.org/2000/svg">
<path d="M9.53809 18.6191C14.4424 18.6191 18.5029 14.5498 18.5029 9.6543C18.5029 4.75 14.4336 0.689453 9.5293 0.689453C4.63379 0.689453 0.573242 4.75 0.573242 9.6543C0.573242 14.5498 4.64258 18.6191 9.53809 18.6191ZM9.5293 11.1572C7.8418 11.1396 6.51465 9.7334 6.51465 7.84375C6.50586 6.06836 7.85059 4.5918 9.5293 4.5918C11.2168 4.5918 12.5439 6.06836 12.5439 7.84375C12.5439 9.7334 11.2256 11.1748 9.5293 11.1572ZM9.5293 17.2832C7.5166 17.2832 5.47754 16.457 4.13281 15.0244C5.08203 13.5303 7.14746 12.6514 9.5293 12.6514C11.8936 12.6514 13.9766 13.5127 14.9346 15.0244C13.5811 16.457 11.5508 17.2832 9.5293 17.2832Z" fill="#323232"/>
</svg>
