<svg width="35" height="35" viewBox="0 0 35 35" fill="none" xmlns="http://www.w3.org/2000/svg">
<path d="M13.5991 27.0874C13.8409 26.9506 14.0324 26.7579 14.1836 26.6058C14.1973 26.592 14.2108 26.5785 14.2238 26.5654L25.5429 15.2463C25.5557 15.2335 25.5686 15.2207 25.5814 15.2079C25.8813 14.9081 26.1728 14.6167 26.3808 14.344C26.6153 14.0366 26.8358 13.6387 26.8358 13.125C26.8358 12.6113 26.6153 12.2134 26.3808 11.906C26.1728 11.6333 25.8813 11.3419 25.5814 11.0421C25.5686 11.0293 25.5557 11.0165 25.5429 11.0037L23.9963 9.45711C23.9835 9.44427 23.9707 9.43145 23.9579 9.41864C23.6581 9.11872 23.3667 8.82724 23.094 8.61919C22.7866 8.38466 22.3887 8.16421 21.875 8.16421C21.3613 8.16421 20.9634 8.38466 20.656 8.61919C20.3833 8.82723 20.092 9.11871 19.7922 9.41863C19.7793 9.43144 19.7665 9.44427 19.7537 9.45711L8.43461 20.7762C8.42154 20.7893 8.40806 20.8027 8.39424 20.8164C8.24207 20.9676 8.04946 21.1591 7.91257 21.4009L8.78277 21.8936L7.91257 21.4009C7.77568 21.6426 7.71062 21.9063 7.65921 22.1146C7.65454 22.1335 7.64999 22.152 7.64551 22.1699L6.52364 26.6573L7.49378 26.8999L13.1065 26.2172M13.5991 27.0874L13.1065 26.2172M13.5991 27.0874C13.5991 27.0874 13.5992 27.0874 13.5992 27.0874L13.1065 26.2172M13.5991 27.0874C13.3574 27.2243 13.0937 27.2894 12.8854 27.3408C12.8665 27.3455 12.8481 27.35 12.8301 27.3545L8.34266 28.4764C8.33146 28.4792 8.31984 28.4821 8.30784 28.4851C8.16136 28.5219 7.95843 28.5729 7.77881 28.5905C7.57212 28.6107 7.12016 28.6174 6.75138 28.2486L7.45849 27.5415C7.55858 27.6416 7.73909 27.5965 8.10012 27.5062L12.5876 26.3844C12.8546 26.3176 12.9882 26.2842 13.1065 26.2172" stroke="black" stroke-width="2"/>
<path d="M18.2292 10.9375L24.0625 16.7708" stroke="black" stroke-width="2"/>
</svg>
