<svg width="30" height="30" viewBox="0 0 30 30" fill="none" xmlns="http://www.w3.org/2000/svg">
<path d="M5.52499 25.7237C5.17435 25.7231 4.84008 25.5752 4.60374 25.3162C4.36305 25.0593 4.24345 24.7118 4.27499 24.3612L4.58124 20.9937L18.7287 6.85119L23.15 11.2712L9.00624 25.4124L5.63874 25.7187C5.59999 25.7224 5.56124 25.7237 5.52499 25.7237ZM24.0325 10.3874L19.6125 5.96744L22.2637 3.31619C22.4982 3.08147 22.8164 2.94958 23.1481 2.94958C23.4799 2.94958 23.798 3.08147 24.0325 3.31619L26.6837 5.96744C26.9185 6.2019 27.0503 6.52006 27.0503 6.85182C27.0503 7.18358 26.9185 7.50173 26.6837 7.73619L24.0337 10.3862L24.0325 10.3874Z" fill="black"/>
</svg>
