<svg width="336" height="109" viewBox="0 0 336 109" fill="none" xmlns="http://www.w3.org/2000/svg">
<path d="M34.5297 22.4527C43.2909 22.4527 50.2198 24.6574 55.3162 29.0666C60.4126 33.4186 62.9608 39.6603 62.9608 47.7917H44.8371C44.8371 44.3559 43.9208 41.6359 42.0884 39.6317C40.3133 37.6275 37.7651 36.6254 34.4438 36.6254C30.6072 36.6254 27.7726 37.8279 25.9402 40.2329C24.1651 42.638 23.2775 45.9879 23.2775 50.2826V55.7799C23.2775 60.0174 24.1651 63.3673 25.9402 65.8296C27.7726 68.2346 30.5499 69.4371 34.272 69.4371C37.9368 69.4371 40.7141 68.4923 42.6038 66.6026C44.4935 64.7129 45.4383 62.0502 45.4383 58.6144H62.9608C62.9608 66.6885 60.4699 72.8729 55.488 77.1677C50.5634 81.4624 43.5773 83.6098 34.5297 83.6098C24.4514 83.6098 16.8067 81.0329 11.5958 75.8793C6.4421 70.7256 3.86526 63.1096 3.86526 53.0313C3.86526 42.9529 6.4421 35.3369 11.5958 30.1833C16.8067 25.0296 24.4514 22.4527 34.5297 22.4527Z" fill="black"/>
<path d="M90.4574 41.9508C92.2898 40.1184 94.4372 38.7155 96.8995 37.742C99.3618 36.7113 101.939 36.1959 104.63 36.1959C109.898 36.1959 113.849 37.6561 116.484 40.5765C119.118 43.4969 120.435 47.7058 120.435 53.203V82.579H103.342V55.2645C103.342 53.3176 102.826 51.7715 101.796 50.6262C100.822 49.4237 99.4191 48.8224 97.5867 48.8224C95.468 48.8224 93.7501 49.5096 92.433 50.8839C91.116 52.2582 90.4574 53.9475 90.4574 55.9517V82.579H73.3644V20.3054H90.4574V41.9508Z" fill="black"/>
<path d="M154.918 36.1959C162.877 36.1959 169.119 38.2287 173.643 42.2944C178.224 46.3028 180.514 52.1723 180.514 59.9028C180.514 67.6334 178.224 73.5315 173.643 77.5971C169.119 81.6056 162.877 83.6098 154.918 83.6098C146.958 83.6098 140.716 81.6056 136.192 77.5971C131.669 73.5887 129.407 67.6906 129.407 59.9028C129.407 52.115 131.669 46.2169 136.192 42.2085C140.716 38.2001 146.958 36.1959 154.918 36.1959ZM154.918 47.7917C149.306 47.7917 146.5 51.027 146.5 57.4978V62.3938C146.5 68.8073 149.306 72.014 154.918 72.014C160.587 72.014 163.421 68.8073 163.421 62.3938V57.4978C163.421 51.027 160.587 47.7917 154.918 47.7917Z" fill="black"/>
<path d="M190.177 31.9011V20.3054H207.27V31.9011H190.177ZM190.177 82.579V37.2266H207.27V82.579H190.177Z" fill="black"/>
<path d="M234.515 37.8174C241.376 34.9308 247.54 34.0772 253.006 35.2567C258.503 36.3612 262.517 39.922 265.048 45.9393L249.768 52.3675C247.769 47.617 244.184 46.3298 239.011 48.5059C233.838 50.6819 232.507 54.7522 235.016 60.7167L236.914 65.2296C239.401 71.1413 243.337 72.9647 248.72 70.6998C254.104 68.4349 255.775 64.8745 253.732 60.0185L268.379 53.8567C270.933 59.9267 270.693 65.3389 267.662 70.0933C264.682 74.8255 259.762 78.6349 252.9 81.5215C245.563 84.608 239.033 85.1809 233.309 83.2402C227.585 81.2996 223.213 76.7401 220.193 69.5616C217.173 62.3831 216.971 56.0694 219.586 50.6205C222.202 45.1715 227.178 40.9038 234.515 37.8174Z" fill="white"/>
<path d="M253.006 35.2567L252.474 37.7262L252.491 37.7299L252.509 37.7335L253.006 35.2567ZM265.048 45.9393L266.028 48.2679L268.357 47.2883L267.377 44.9596L265.048 45.9393ZM249.768 52.3675L247.439 53.3471L248.419 55.6758L250.747 54.6961L249.768 52.3675ZM253.732 60.0185L252.752 57.6898L250.424 58.6694L251.403 60.9981L253.732 60.0185ZM268.379 53.8567L270.708 52.8771L269.728 50.5484L267.4 51.528L268.379 53.8567ZM267.662 70.0933L265.531 68.735L265.528 68.7412L265.524 68.7474L267.662 70.0933ZM233.309 83.2402L232.498 85.6328L233.309 83.2402ZM219.586 50.6205L217.309 49.5273L219.586 50.6205ZM235.494 40.146C242.034 37.3948 247.658 36.687 252.474 37.7262L253.539 32.7872C247.423 31.4674 240.719 32.4668 233.535 35.4887L235.494 40.146ZM252.509 37.7335C257.04 38.644 260.451 41.5266 262.72 46.9189L267.377 44.9596C264.583 38.3174 259.966 34.0783 253.504 32.7799L252.509 37.7335ZM264.069 43.6106L248.788 50.0388L250.747 54.6961L266.028 48.2679L264.069 43.6106ZM252.096 51.3879C250.924 48.6003 249.103 46.4197 246.433 45.4615C243.816 44.522 240.93 44.9579 238.032 46.1772L239.991 50.8345C242.265 49.8778 243.758 49.8693 244.726 50.217C245.643 50.546 246.613 51.3842 247.439 53.3471L252.096 51.3879ZM238.032 46.1772C234.993 47.4555 232.691 49.4729 231.732 52.405C230.801 55.2505 231.313 58.43 232.687 61.6963L237.344 59.737C236.209 57.0389 236.133 55.2009 236.534 53.9762C236.906 52.8381 237.857 51.7323 239.991 50.8345L238.032 46.1772ZM232.687 61.6963L234.586 66.2092L239.243 64.25L237.344 59.737L232.687 61.6963ZM234.586 66.2092C235.959 69.4729 237.91 72.0446 240.669 73.3231C243.483 74.6271 246.59 74.3367 249.7 73.0284L247.741 68.3711C245.467 69.3277 243.914 69.2581 242.793 68.7387C241.617 68.1938 240.357 66.8979 239.243 64.25L234.586 66.2092ZM249.7 73.0284C252.695 71.7685 255.094 69.9706 256.298 67.4039C257.531 64.7768 257.261 61.8914 256.061 59.0388L251.403 60.9981C252.246 63.0015 252.162 64.3244 251.724 65.2577C251.258 66.2515 250.13 67.3662 247.741 68.3711L249.7 73.0284ZM254.712 62.3471L269.359 56.1853L267.4 51.528L252.752 57.6898L254.712 62.3471ZM266.05 54.8363C268.344 60.2893 268.038 64.805 265.531 68.735L269.792 71.4517C273.349 65.8728 273.521 59.564 270.708 52.8771L266.05 54.8363ZM265.524 68.7474C262.899 72.9167 258.461 76.4416 251.921 79.1929L253.88 83.8502C261.063 80.8282 266.466 76.7343 269.799 71.4393L265.524 68.7474ZM251.921 79.1929C244.969 82.1173 239.095 82.5343 234.12 80.8477L232.498 85.6328C238.971 87.8275 246.158 87.0987 253.88 83.8502L251.921 79.1929ZM234.12 80.8477C229.266 79.2021 225.347 75.299 222.521 68.582L217.864 70.5412C221.078 78.1811 225.903 83.3971 232.498 85.6328L234.12 80.8477ZM222.521 68.582C219.696 61.865 219.646 56.3341 221.864 51.7137L217.309 49.5273C214.295 55.8047 214.65 62.9013 217.864 70.5412L222.521 68.582ZM221.864 51.7137C224.137 46.9781 228.543 43.0704 235.494 40.146L233.535 35.4887C225.813 38.7372 220.267 43.365 217.309 49.5273L221.864 51.7137Z" fill="black"/>
<path d="M306.498 36.1959C314.801 36.1959 321.129 38.1428 325.481 42.0367C329.89 45.9306 332.095 51.886 332.095 59.9028V62.8233H298.08C298.08 66.0873 298.796 68.5496 300.228 70.2102C301.716 71.8708 304.036 72.7011 307.185 72.7011C310.048 72.7011 312.138 72.0999 313.455 70.8974C314.83 69.6948 315.517 68.0915 315.517 66.0873H332.095C332.095 71.5845 330.004 75.8793 325.824 78.9715C321.644 82.0637 315.546 83.6098 307.529 83.6098C299.111 83.6098 292.583 81.6628 287.945 77.7689C283.306 73.8178 280.987 67.8624 280.987 59.9028C280.987 52.115 283.249 46.2169 287.773 42.2085C292.297 38.2001 298.538 36.1959 306.498 36.1959ZM307.185 47.1045C301.802 47.1045 298.796 49.6527 298.166 54.7491H314.83C314.83 52.4014 314.143 50.5403 312.768 49.166C311.451 47.7917 309.59 47.1045 307.185 47.1045Z" fill="black"/>
</svg>
