<svg width="35" height="35" viewBox="0 0 35 35" fill="none" xmlns="http://www.w3.org/2000/svg">
<path d="M20.1543 32.0834H14.846C14.1607 32.0834 13.5678 31.6065 13.4212 30.9371L12.8276 28.1896C12.0358 27.8427 11.2851 27.4088 10.5891 26.8961L7.91015 27.7492C7.25681 27.9575 6.54658 27.6825 6.2039 27.0886L3.5439 22.4934C3.20496 21.8991 3.32173 21.1495 3.82535 20.6865L5.90348 18.7906C5.80897 17.9318 5.80897 17.0653 5.90348 16.2065L3.82535 14.315C3.32099 13.8518 3.20417 13.1013 3.5439 12.5067L6.19806 7.90856C6.54075 7.31458 7.25098 7.03959 7.90431 7.24794L10.5833 8.10106C10.9392 7.83733 11.3097 7.59389 11.6931 7.3719C12.0611 7.16437 12.4398 6.97646 12.8276 6.80898L13.4226 4.0644C13.5686 3.39497 14.1608 2.91741 14.846 2.91669H20.1543C20.8395 2.91741 21.4317 3.39497 21.5776 4.0644L22.1785 6.81044C22.588 6.99056 22.9867 7.1941 23.3729 7.42002C23.733 7.62829 24.0811 7.85663 24.4156 8.10398L27.096 7.25085C27.7489 7.04329 28.4582 7.31817 28.8008 7.91148L31.4549 12.5096C31.7939 13.1039 31.6771 13.8535 31.1735 14.3165L29.0954 16.2123C29.1899 17.0711 29.1899 17.9377 29.0954 18.7965L31.1735 20.6923C31.6771 21.1553 31.7939 21.9049 31.4549 22.4992L28.8008 27.0973C28.4582 27.6906 27.7489 27.9655 27.096 27.7579L24.4156 26.9048C24.0764 27.1546 23.7239 27.3859 23.3597 27.5975C22.9774 27.819 22.583 28.0191 22.1785 28.1969L21.5776 30.9371C21.4311 31.6059 20.839 32.0828 20.1543 32.0834ZM11.1126 23.6673L12.3085 24.5423C12.5781 24.7409 12.859 24.9235 13.1499 25.0892C13.4237 25.2477 13.7055 25.3918 13.9943 25.5209L15.3549 26.1173L16.0214 29.1667H18.9818L19.6483 26.1159L21.0089 25.5194C21.6029 25.2575 22.1667 24.9318 22.6904 24.5481L23.8876 23.6731L26.8641 24.6211L28.3443 22.0573L26.0358 19.9529L26.1991 18.4771C26.2709 17.8316 26.2709 17.1801 26.1991 16.5346L26.0358 15.0588L28.3458 12.95L26.8641 10.3848L23.8876 11.3327L22.6904 10.4577C22.1665 10.0723 21.6028 9.74425 21.0089 9.47919L19.6483 8.88273L18.9818 5.83335H16.0214L15.352 8.88419L13.9943 9.47919C13.7053 9.60613 13.4234 9.74877 13.1499 9.90648C12.8608 10.0717 12.5813 10.2534 12.3129 10.4504L11.1156 11.3254L8.14056 10.3775L6.65744 12.95L8.96598 15.0515L8.80265 16.5288C8.7309 17.1743 8.7309 17.8258 8.80265 18.4713L8.96598 19.9471L6.65744 22.0515L8.13765 24.6152L11.1126 23.6673ZM17.4943 23.3334C14.2727 23.3334 11.661 20.7217 11.661 17.5C11.661 14.2784 14.2727 11.6667 17.4943 11.6667C20.716 11.6667 23.3276 14.2784 23.3276 17.5C23.3236 20.72 20.7143 23.3293 17.4943 23.3334ZM17.4943 14.5834C15.9009 14.585 14.6037 15.865 14.5809 17.4582C14.5581 19.0514 15.8181 20.3681 17.4107 20.4154C19.0034 20.4627 20.3393 19.223 20.411 17.6313V18.2146V17.5C20.411 15.8892 19.1051 14.5834 17.4943 14.5834Z" fill="black"/>
</svg>
